<svg t="1706493787649" class="icon" viewBox="0 0 1024 1024" version="1.1" xmlns="http://www.w3.org/2000/svg" p-id="1597" width="200" height="200"><path d="M327.68 882.176c-5.632 0-11.264-2.048-15.36-6.144L30.72 623.104c-5.12-4.608-7.68-10.752-7.68-16.896S25.6 593.408 30.72 588.8l281.6-252.928c6.656-6.144 16.384-7.68 24.576-4.096 8.192 3.584 13.824 11.776 13.824 20.992v103.424h174.592c12.8 0 23.04 10.24 23.04 23.04s-10.24 23.04-23.04 23.04H327.68c-12.8 0-23.04-10.24-23.04-23.04V404.992l-224.256 201.216 224.256 201.216v-74.752c0-12.8 10.24-23.04 23.04-23.04h197.632c12.8 0 23.04 10.24 23.04 23.04s-10.24 23.04-23.04 23.04H350.72v103.424c0 9.216-5.12 17.408-13.824 20.992-2.56 1.024-6.144 2.048-9.216 2.048z" p-id="1598"></path><path d="M705.024 747.008c-3.072 0-6.144-0.512-9.216-2.048-8.192-3.584-13.824-11.776-13.824-20.992v-103.424h-174.08c-12.8 0-23.04-10.24-23.04-23.04s10.24-23.04 23.04-23.04h197.632c12.8 0 23.04 10.24 23.04 23.04v74.752L952.32 471.04l-224.256-201.216v74.752c0 12.8-10.24 23.04-23.04 23.04H507.904c-12.8 0-23.04-10.24-23.04-23.04s10.24-23.04 23.04-23.04h174.592V218.112c0-9.216 5.12-17.408 13.824-20.992 8.192-3.584 17.92-2.048 24.576 4.096l281.6 252.928c5.12 4.608 7.68 10.752 7.68 16.896 0 6.656-2.56 12.8-7.68 16.896l-281.6 252.928c-4.608 4.096-10.24 6.144-15.872 6.144z" p-id="1599"></path></svg>